<svg width="314" height="241" viewBox="0 0 314 241" fill="none" xmlns="http://www.w3.org/2000/svg">
<rect width="314" height="241" fill="#F5F5F5"/>
<g id="Homepage Roulette Machine">
<g id="Group 1">
<rect id="Rectangle 3" x="195.011" y="115" width="4" height="34" transform="rotate(22.5 195.011 115)" fill="#D9D9D9"/>
<g id="Polygon 1" filter="url(#filter0_d_0_1)">
<path d="M107 0L174.882 28.1178L203 96L174.882 163.882L107 192L39.1178 163.882L11 96L39.1178 28.1178L107 0Z" fill="url(#paint0_linear_0_1)"/>
<path d="M173.733 29.2656L201.376 96L173.733 162.733L107 190.376L40.2656 162.733L12.623 96L40.2656 29.2656L107 1.62305L173.733 29.2656Z" stroke="url(#paint1_linear_0_1)" stroke-width="3"/>
</g>
<g id="Union" filter="url(#filter1_d_0_1)">
<path d="M118.5 95C118.5 95 128 161.5 148 179C167.992 196.493 175.494 227.975 175.5 228H137.5C137.5 209.077 127.581 198.091 107.25 198.002C86.9187 198.091 77 209.077 77 228H39C39.0059 227.975 46.5078 196.493 66.5 179C86.5 161.5 96 95 96 95H118.5Z" fill="url(#paint2_linear_0_1)"/>
</g>
<g id="Ellipse 1" filter="url(#filter2_d_0_1)">
<circle cx="107" cy="95" r="32" fill="#F5F5EE"/>
</g>
</g>
<rect id="Rectangle 1" y="228" width="314" height="13" fill="url(#paint3_linear_0_1)"/>
<g id="Rectangle 2">
<rect x="189" y="219" width="113" height="9" fill="url(#paint4_linear_0_1)"/>
<rect x="189" y="219" width="113" height="9" fill="url(#paint5_linear_0_1)" fill-opacity="0.2" style="mix-blend-mode:plus-darker"/>
</g>
<g id="Group 2" filter="url(#filter3_d_0_1)">
<ellipse id="Ellipse 2" cx="107" cy="95.1481" rx="5" ry="5.85185" fill="#DBE2E6"/>
<path id="Vector 1" d="M102 95.1482H112C112 95.1482 114 25.5 107 25.5C100 25.5 102 95.1482 102 95.1482Z" fill="#DBE2E6"/>
</g>
<g id="Ellipse 3" filter="url(#filter4_d_0_1)">
<circle cx="107" cy="25" r="7" fill="url(#paint6_radial_0_1)"/>
</g>
</g>
<defs>
<filter id="filter0_d_0_1" x="9" y="0" width="194" height="194" filterUnits="userSpaceOnUse" color-interpolation-filters="sRGB">
<feFlood flood-opacity="0" result="BackgroundImageFix"/>
<feColorMatrix in="SourceAlpha" type="matrix" values="0 0 0 0 0 0 0 0 0 0 0 0 0 0 0 0 0 0 127 0" result="hardAlpha"/>
<feOffset dx="-2" dy="2"/>
<feComposite in2="hardAlpha" operator="out"/>
<feColorMatrix type="matrix" values="0 0 0 0 0 0 0 0 0 0 0 0 0 0 0 0 0 0 0.25 0"/>
<feBlend mode="normal" in2="BackgroundImageFix" result="effect1_dropShadow_0_1"/>
<feBlend mode="normal" in="SourceGraphic" in2="effect1_dropShadow_0_1" result="shape"/>
</filter>
<filter id="filter1_d_0_1" x="36" y="95" width="139.5" height="133" filterUnits="userSpaceOnUse" color-interpolation-filters="sRGB">
<feFlood flood-opacity="0" result="BackgroundImageFix"/>
<feColorMatrix in="SourceAlpha" type="matrix" values="0 0 0 0 0 0 0 0 0 0 0 0 0 0 0 0 0 0 127 0" result="hardAlpha"/>
<feOffset dx="-3"/>
<feComposite in2="hardAlpha" operator="out"/>
<feColorMatrix type="matrix" values="0 0 0 0 0 0 0 0 0 0 0 0 0 0 0 0 0 0 0.25 0"/>
<feBlend mode="normal" in2="BackgroundImageFix" result="effect1_dropShadow_0_1"/>
<feBlend mode="normal" in="SourceGraphic" in2="effect1_dropShadow_0_1" result="shape"/>
</filter>
<filter id="filter2_d_0_1" x="72" y="63" width="67" height="66" filterUnits="userSpaceOnUse" color-interpolation-filters="sRGB">
<feFlood flood-opacity="0" result="BackgroundImageFix"/>
<feColorMatrix in="SourceAlpha" type="matrix" values="0 0 0 0 0 0 0 0 0 0 0 0 0 0 0 0 0 0 127 0" result="hardAlpha"/>
<feOffset dx="-3" dy="2"/>
<feComposite in2="hardAlpha" operator="out"/>
<feColorMatrix type="matrix" values="0 0 0 0 0 0 0 0 0 0 0 0 0 0 0 0 0 0 0.25 0"/>
<feBlend mode="normal" in2="BackgroundImageFix" result="effect1_dropShadow_0_1"/>
<feBlend mode="normal" in="SourceGraphic" in2="effect1_dropShadow_0_1" result="shape"/>
</filter>
<filter id="filter3_d_0_1" x="99.7355" y="25.5" width="12.5289" height="75.5" filterUnits="userSpaceOnUse" color-interpolation-filters="sRGB">
<feFlood flood-opacity="0" result="BackgroundImageFix"/>
<feColorMatrix in="SourceAlpha" type="matrix" values="0 0 0 0 0 0 0 0 0 0 0 0 0 0 0 0 0 0 127 0" result="hardAlpha"/>
<feOffset dx="-2"/>
<feComposite in2="hardAlpha" operator="out"/>
<feColorMatrix type="matrix" values="0 0 0 0 0 0 0 0 0 0 0 0 0 0 0 0 0 0 0.25 0"/>
<feBlend mode="normal" in2="BackgroundImageFix" result="effect1_dropShadow_0_1"/>
<feBlend mode="normal" in="SourceGraphic" in2="effect1_dropShadow_0_1" result="shape"/>
</filter>
<filter id="filter4_d_0_1" x="98" y="18" width="16" height="16" filterUnits="userSpaceOnUse" color-interpolation-filters="sRGB">
<feFlood flood-opacity="0" result="BackgroundImageFix"/>
<feColorMatrix in="SourceAlpha" type="matrix" values="0 0 0 0 0 0 0 0 0 0 0 0 0 0 0 0 0 0 127 0" result="hardAlpha"/>
<feOffset dx="-2" dy="2"/>
<feComposite in2="hardAlpha" operator="out"/>
<feColorMatrix type="matrix" values="0 0 0 0 0 0 0 0 0 0 0 0 0 0 0 0 0 0 0.25 0"/>
<feBlend mode="normal" in2="BackgroundImageFix" result="effect1_dropShadow_0_1"/>
<feBlend mode="normal" in="SourceGraphic" in2="effect1_dropShadow_0_1" result="shape"/>
</filter>
<linearGradient id="paint0_linear_0_1" x1="107" y1="0" x2="107" y2="192" gradientUnits="userSpaceOnUse">
<stop stop-color="#D5BD91"/>
<stop offset="1" stop-color="#7F6541"/>
</linearGradient>
<linearGradient id="paint1_linear_0_1" x1="107" y1="0" x2="107" y2="192" gradientUnits="userSpaceOnUse">
<stop stop-color="#A48B6C"/>
<stop offset="1" stop-color="#4C321C"/>
</linearGradient>
<linearGradient id="paint2_linear_0_1" x1="107.25" y1="95" x2="107.25" y2="228" gradientUnits="userSpaceOnUse">
<stop stop-color="#DEE5E9"/>
<stop offset="1" stop-color="#858A8D"/>
</linearGradient>
<linearGradient id="paint3_linear_0_1" x1="157" y1="228" x2="157" y2="241" gradientUnits="userSpaceOnUse">
<stop stop-color="#AB926A"/>
<stop offset="1" stop-color="#826844"/>
</linearGradient>
<linearGradient id="paint4_linear_0_1" x1="245.5" y1="219" x2="245.5" y2="228" gradientUnits="userSpaceOnUse">
<stop stop-color="#DEE5E9"/>
<stop offset="1" stop-color="#858A8D"/>
</linearGradient>
<linearGradient id="paint5_linear_0_1" x1="189" y1="223.5" x2="302" y2="223.5" gradientUnits="userSpaceOnUse">
<stop offset="0.4"/>
<stop offset="0.4" stop-color="#666666"/>
</linearGradient>
<radialGradient id="paint6_radial_0_1" cx="0" cy="0" r="1" gradientUnits="userSpaceOnUse" gradientTransform="translate(107 25) rotate(90) scale(7)">
<stop stop-color="#FCF5E8"/>
<stop offset="1" stop-color="#F2DFBD"/>
</radialGradient>
</defs>
</svg>
